<svg xmlns="http://www.w3.org/2000/svg" width="24" height="24.001" viewBox="0 0 24 24.001">
  <g id="Bid_Analysis_outline" transform="translate(-6987 -6057.999)">
    <g id="Group_16935" data-name="Group 16935" transform="translate(1002 -395)">
      <g id="vuesax_linear_group" data-name="vuesax/linear/group" transform="translate(5429 6073)">
        <g id="group">
          <path id="Union_59" data-name="Union 59" d="M-5421.49-6053a2.006,2.006,0,0,1-2-2v-2.1a2,2,0,0,0-.831-1.621,7.84,7.84,0,0,1-1.285-.738l-1.864-1.052a2.987,2.987,0,0,1-1.531-2.609v-3.56h.029A8,8,0,0,1-5421-6074a8,8,0,0,1,7.973,7.322h.047v3.56a3,3,0,0,1-1.529,2.609l-1.971,1.111a7.893,7.893,0,0,1-1.141.652,1.994,1.994,0,0,0-.869,1.646v2.1a2.007,2.007,0,0,1-2,2Z" transform="translate(5989 6455)" fill="none" stroke="#bbc5d5" stroke-linecap="round" stroke-linejoin="round" stroke-width="2"/>
          <path id="Vector" d="M0,0H24V24H0Z" transform="translate(580 404) rotate(180)" fill="none" opacity="0"/>
        </g>
      </g>
    </g>
    <path id="Path_11086" data-name="Path 11086" d="M0-38.664l1.336,1.336L4.007-40" transform="translate(6996.997 6105.933)" fill="none" stroke="#bbc5d5" stroke-linecap="round" stroke-linejoin="round" stroke-miterlimit="10" stroke-width="1.5"/>
  </g>
</svg>
