<svg xmlns="http://www.w3.org/2000/svg" width="24" height="24" viewBox="0 0 24 24">
  <g id="arrow-square-left" transform="translate(-492 -188)">
    <path id="Vector" d="M14.19,0H5.81C2.17,0,0,2.17,0,5.81v8.37C0,17.83,2.17,20,5.81,20h8.37c3.64,0,5.81-2.17,5.81-5.81V5.81C20,2.17,17.83,0,14.19,0Z" transform="translate(494 190)" fill="#cf4f4f" opacity="0.33"/>
    <path id="Union_38" data-name="Union 38" d="M-15320.747,846.339l-2.989-2.989-2.985,2.989a.743.743,0,0,1-.53.219.715.715,0,0,1-.531-.219.76.76,0,0,1,0-1.062l3-3-3-3a.76.76,0,0,1,0-1.062.759.759,0,0,1,1.062,0l2.984,2.987,2.99-2.987a.747.747,0,0,1,1.058,0,.748.748,0,0,1,0,1.058l-3,3,3,3a.753.753,0,0,1,0,1.062.7.7,0,0,1-.527.219A.737.737,0,0,1-15320.747,846.339Z" transform="translate(15827.73 -642.279)" fill="#cf4f4f"/>
    <path id="Vector-2" data-name="Vector" d="M0,0H24V24H0Z" transform="translate(492 188)" fill="none" opacity="0"/>
  </g>
</svg>
