<svg id="Dept_Users" xmlns="http://www.w3.org/2000/svg" width="24" height="24" viewBox="0 0 24 24">
  <g id="profile-2user">
    <path id="Vector" d="M0,0H24V24H0Z" fill="none" opacity="0"/>
    <g id="frozen_bids" transform="translate(6 2)">
      <path id="Path_11025" data-name="Path 11025" d="M112.737,10.412l.951.634-.568.378-.674-.948c.137-.033.23-.052.292-.064Zm1.544,1.027.329.219h-.658l.329-.219Zm-5.676,4.025h.252V12.59a.933.933,0,0,1,.931-.932h2.693l-.719-1.01c-.374.1-.872.233-1.536.419-1.283.357-1.569.568-1.651,1.982.019.8.03,1.61.031,2.414Zm11.062,3.98a.273.273,0,0,1-.274.273H109.108a.273.273,0,0,1-.274-.273v-.42h10.833Zm-10.153-1.077V12.59a.273.273,0,0,1,.274-.273h8.926a.273.273,0,0,1,.274.273v5.776Zm10.413-5.317c-.083-1.415-.369-1.626-1.651-1.982-.635-.178-1.119-.31-1.487-.407l-.015.023-.693.975h2.633a.933.933,0,0,1,.931.932v2.874h.252c0-.8.012-1.614.031-2.414Zm-3.82-2.562-.666.936-.568-.378.938-.624c.068.014.164.035.3.066Zm1.588-4.1a3.49,3.49,0,0,0-.052-1.209h.041a.6.6,0,1,1,.01,1.209Zm-7.42-3.567a4.188,4.188,0,0,1,7.655-.591,1.8,1.8,0,0,1,.168,1.44c-.012.076-.024.153-.036.238q-.048.322-.115.641a1.307,1.307,0,0,0-.263-.027h-.246c-.412-1.37-.873-2.077-1.448-2.223a1.1,1.1,0,0,0-1.068.393.335.335,0,0,0-.049.064,3.653,3.653,0,0,1-3.587,1.626.329.329,0,0,0-.28.14H111a1.281,1.281,0,0,0-.5.1,3.5,3.5,0,0,1-.226-1.8Zm.118,2.963a.6.6,0,0,1,.4-.566,3.575,3.575,0,0,0-.033,1.12.607.607,0,0,1-.363-.554Zm1.113-.738a2.911,2.911,0,0,0,1,3.135,2.836,2.836,0,0,0,4.346-3.343.357.357,0,0,1-.012-.035c-.459-1.572-.858-1.829-1.008-1.866-.112-.029-.25.037-.412.192a4.167,4.167,0,0,1-3.854,1.916Zm2.726,4.379a3.516,3.516,0,0,1-.919-.122l-.161.6,1.128.75,1.078-.717-.173-.645a3.457,3.457,0,0,1-.953.132Zm.018,4.84a1.031,1.031,0,1,0,1.031,1.031A1.031,1.031,0,0,0,114.251,14.26Zm0,1.4a.373.373,0,1,0-.264-.11.373.373,0,0,0,.264.11Z" transform="translate(-108.574 -0.003)" fill="#5046af" fill-rule="evenodd"/>
    </g>
  </g>
</svg>
