<svg id="Bid_Received" xmlns="http://www.w3.org/2000/svg" width="24" height="24" viewBox="0 0 24 24">
  <g id="usd-coin-_usdc_" data-name="usd-coin-(usdc)">
    <path id="Vector" d="M0,0H24V24H0Z" fill="none" opacity="0"/>
    <g id="frozen_bids" transform="translate(2 1)">
      <g id="Group_16408" data-name="Group 16408" transform="translate(0 0)">
        <path id="Path_11023" data-name="Path 11023" d="M11.085,9.883a3.017,3.017,0,0,1-.489,1.228,2.132,2.132,0,0,0,1.344.347,2.117,2.117,0,0,0,1.343-.348A3.017,3.017,0,0,1,12.8,9.883,3.556,3.556,0,0,1,11.085,9.883Zm1.223-8.717h-.735A2.576,2.576,0,0,0,9,3.739V6.312a2.941,2.941,0,1,0,5.881,0V4.474A1.415,1.415,0,0,0,13.411,3a.368.368,0,1,1,0-.735,2.146,2.146,0,0,1,1.47.5V1.534A1.352,1.352,0,0,0,13.732.1,1.443,1.443,0,0,1,12.308,1.166Z" transform="translate(-5.692 -0.1)" fill="#5046af"/>
        <path id="Path_11024" data-name="Path 11024" d="M18.746,5H13.6a.368.368,0,0,0-.368.368V9.043a.368.368,0,0,0,.368.368h1.47v3.2l-.713,3.319a.371.371,0,0,1-.5.265l-3.367-1.345a4.066,4.066,0,0,0-1.5-.29H8.285a2.456,2.456,0,0,1-2.036.735,2.456,2.456,0,0,1-2.036-.735H3.977a2.546,2.546,0,0,0-1.014.21l-1.184.5A2.946,2.946,0,0,0,0,17.975v3.2a2.576,2.576,0,0,0,2.573,2.573H6.984a1.1,1.1,0,1,0,0-2.205H2.573a.368.368,0,0,1-.368-.368v-3.2a.368.368,0,1,1,.735,0v2.83H6.984a1.838,1.838,0,0,1,1.838,1.838,1.81,1.81,0,0,1-.379,1.1h1.849V17.935l-.89-.357a.368.368,0,0,1,.272-.684l4.176,1.669a1.834,1.834,0,0,0,2.481-1.32l.768-3.591.151-.7a1,1,0,0,0,.026-.235v-3.3h1.47a.368.368,0,0,0,.368-.368V5.368A.368.368,0,0,0,18.746,5Zm-2.205,6.679c-.044-.015-.088-.026-.136-.037a1.072,1.072,0,0,0-.6.04V9.411h.735Z" transform="translate(0 -3.199)" fill="#5046af"/>
      </g>
    </g>
  </g>
</svg>
