<svg xmlns="http://www.w3.org/2000/svg" width="18.391" height="18.391" viewBox="0 0 18.391 18.391">
  <g id="Sort" transform="translate(-236 -252)">
    <g id="status-up" transform="translate(236 252)">
      <g id="status-up-2" data-name="status-up" transform="translate(1.533 1.533)">
        <path id="Vector" d="M10.873,0H4.452A4.089,4.089,0,0,0,0,4.452v6.414a4.092,4.092,0,0,0,4.452,4.46h6.414a4.089,4.089,0,0,0,4.452-4.452V4.452A4.08,4.08,0,0,0,10.873,0Z" fill="#5046af" opacity="0"/>
        <path id="Vector-2" data-name="Vector" d="M.575,2.736A.579.579,0,0,1,0,2.161V.575A.579.579,0,0,1,.575,0a.579.579,0,0,1,.575.575V2.161A.574.574,0,0,1,.575,2.736Z" transform="translate(3.165 10.214)" fill="#5046af"/>
        <path id="Vector-3" data-name="Vector" d="M.575,4.329A.579.579,0,0,1,0,3.755V.575A.579.579,0,0,1,.575,0a.579.579,0,0,1,.575.575v3.18A.574.574,0,0,1,.575,4.329Z" transform="translate(7.088 8.621)" fill="#5046af"/>
        <path id="Vector-4" data-name="Vector" d="M.575,5.916A.579.579,0,0,1,0,5.341V.575A.579.579,0,0,1,.575,0a.579.579,0,0,1,.575.575V5.341A.569.569,0,0,1,.575,5.916Z" transform="translate(11.011 7.034)" fill="#5046af"/>
        <path id="Vector-5" data-name="Vector" d="M9,.552A.69.69,0,0,0,8.975.429C8.967.4,8.959.36,8.952.329S8.913.276,8.9.245A.444.444,0,0,0,8.821.153C8.814.146,8.814.138,8.806.138,8.783.123,8.76.115,8.737.1A.489.489,0,0,0,8.63.038.611.611,0,0,0,8.515.015.326.326,0,0,0,8.431,0H6.185a.579.579,0,0,0-.575.575.579.579,0,0,0,.575.575h.958a13.907,13.907,0,0,1-6.7,3.916.579.579,0,0,0-.421.7A.573.573,0,0,0,.576,6.2a.844.844,0,0,0,.138-.015A14.967,14.967,0,0,0,7.848,2.077V2.82A.575.575,0,1,0,9,2.82V.552Z" transform="translate(3.163 2.375)" fill="#5046af"/>
      </g>
      <path id="Vector-6" data-name="Vector" d="M0,0H18.391V18.391H0Z" fill="none" opacity="0"/>
    </g>
  </g>
</svg>
