<svg xmlns="http://www.w3.org/2000/svg" width="24" height="24" viewBox="0 0 24 24">
  <g id="Trend_Analysis_Filled" transform="translate(-236 -252)">
    <g id="status-up">
      <g id="status-up-2" data-name="status-up">
        <path id="Vector" d="M14.19,0H5.81C2.17,0,0,2.17,0,5.81v8.37C0,17.83,2.17,20,5.81,20h8.37c3.64,0,5.81-2.17,5.81-5.81V5.81C20,2.17,17.83,0,14.19,0Z" transform="translate(238 254)" fill="#5046af"/>
        <path id="Vector-2" data-name="Vector" d="M.75,3.57A.755.755,0,0,1,0,2.82V.75A.755.755,0,0,1,.75,0,.755.755,0,0,1,1.5.75V2.82A.749.749,0,0,1,.75,3.57Z" transform="translate(242.13 267.33)" fill="#fff"/>
        <path id="Vector-3" data-name="Vector" d="M.75,5.65A.755.755,0,0,1,0,4.9V.75A.755.755,0,0,1,.75,0,.755.755,0,0,1,1.5.75V4.9A.749.749,0,0,1,.75,5.65Z" transform="translate(247.25 265.25)" fill="#fff"/>
        <path id="Vector-4" data-name="Vector" d="M.75,7.72A.755.755,0,0,1,0,6.97V.75A.755.755,0,0,1,.75,0,.755.755,0,0,1,1.5.75V6.97A.743.743,0,0,1,.75,7.72Z" transform="translate(252.37 263.18)" fill="#fff"/>
        <path id="Vector-5" data-name="Vector" d="M11.742.72a.9.9,0,0,0-.03-.16c-.01-.04-.02-.09-.03-.13s-.05-.07-.07-.11a.58.58,0,0,0-.1-.12c-.01-.01-.01-.02-.02-.02-.03-.02-.06-.03-.09-.05a.638.638,0,0,0-.14-.08.8.8,0,0,0-.15-.03A.425.425,0,0,0,11,0H8.072a.755.755,0,0,0-.75.75.755.755,0,0,0,.75.75h1.25A18.148,18.148,0,0,1,.572,6.61a.756.756,0,0,0-.55.91.748.748,0,0,0,.73.57,1.1,1.1,0,0,0,.18-.02,19.532,19.532,0,0,0,9.31-5.36v.97a.75.75,0,0,0,1.5,0V.72Z" transform="translate(242.128 257.1)" fill="#fff"/>
      </g>
      <path id="Vector-6" data-name="Vector" d="M0,0H24V24H0Z" transform="translate(236 252)" fill="none" opacity="0"/>
    </g>
  </g>
</svg>
