<svg id="Tenders_Value" xmlns="http://www.w3.org/2000/svg" width="24" height="24" viewBox="0 0 24 24">
  <g id="usd-coin-_usdc_" data-name="usd-coin-(usdc)">
    <path id="Subtraction_7" data-name="Subtraction 7" d="M10,20A10,10,0,1,1,20,10,10.01,10.01,0,0,1,10,20Zm4.95-15.7A.749.749,0,0,0,14.42,5.58a6.257,6.257,0,0,1,0,8.84.749.749,0,1,0,1.058,1.061,7.748,7.748,0,0,0,0-10.962A.744.744,0,0,0,14.949,4.3Zm-9.9,0a.75.75,0,0,0-.531.216,7.754,7.754,0,0,0,0,10.962.748.748,0,0,0,1.061,0,.756.756,0,0,0,0-1.061,6.25,6.25,0,0,1,0-8.84A.747.747,0,0,0,5.05,4.3ZM6.965,9.887l.005.972L10.2,14.624h1.82v-.082L9.065,11.081a3.644,3.644,0,0,0,1.975-.664,2.351,2.351,0,0,0,.838-1.6h.958l.318-1.153H11.87a2.6,2.6,0,0,0-.419-1.118h1.385l.324-1.161H7.18L6.837,6.677H8.546c.91,0,1.476.331,1.681.984H7.161L6.837,8.814h3.415a1.423,1.423,0,0,1-.555.778,1.921,1.921,0,0,1-1.126.294Z" transform="translate(2.096 2)" fill="#5046af"/>
    <path id="Vector" d="M0,0H24V24H0Z" fill="none" opacity="0"/>
  </g>
</svg>
